PathFileType	4	(X/Y/Z)	/Users/itak/Documents/Research/Walk-IL/dataset/trc/00183_00008.trc
DataRate	CameraRate	NumFrames	NumMarkers	Units	OrigDataRate	OrigDataStartFrame	OrigNumFrames
100.000000	100.000000	4	53	mm	100.000000	745	852
Frame#	Time	RPSI			LPSI			L3			STRN			T10			C7			CLAV			RBAK			LBAK			LSHO			LUPA			LAEL			LAOL			LWTS			LWPS			LFRA			LIFD			LHPS			LHTS			RSHO			RUPA			RAEL			RAOL			RWTS			RWPS			RFRA			RIFD			RHTS			RHPS			RBHD			LFHD			RFHD			LBHD			LHIP			RHIP			RASI			LASI			LKNE			LTHI			LANK			LTIP			LTOE			LMT1			LMT5			LHEE			RKNE			RTHI			RANK			RTIP			RTOE			RMT1			RMT5			RHEE			
		X1	Y1	Z1	X2	Y2	Z2	X3	Y3	Z3	X4	Y4	Z4	X5	Y5	Z5	X6	Y6	Z6	X7	Y7	Z7	X8	Y8	Z8	X9	Y9	Z9	X10	Y10	Z10	X11	Y11	Z11	X12	Y12	Z12	X13	Y13	Z13	X14	Y14	Z14	X15	Y15	Z15	X16	Y16	Z16	X17	Y17	Z17	X18	Y18	Z18	X19	Y19	Z19	X20	Y20	Z20	X21	Y21	Z21	X22	Y22	Z22	X23	Y23	Z23	X24	Y24	Z24	X25	Y25	Z25	X26	Y26	Z26	X27	Y27	Z27	X28	Y28	Z28	X29	Y29	Z29	X30	Y30	Z30	X31	Y31	Z31	X32	Y32	Z32	X33	Y33	Z33	X34	Y34	Z34	X35	Y35	Z35	X36	Y36	Z36	X37	Y37	Z37	X38	Y38	Z38	X39	Y39	Z39	X40	Y40	Z40	X41	Y41	Z41	X42	Y42	Z42	X43	Y43	Z43	X44	Y44	Z44	X45	Y45	Z45	X46	Y46	Z46	X47	Y47	Z47	X48	Y48	Z48	X49	Y49	Z49	X50	Y50	Z50	X51	Y51	Z51	X52	Y52	Z52	X53	Y53	Z53	

746	7.45	-278.6976013183594	1060.50634765625	1104.47802734375	-239.9940032958984	1059.012084960938	986.6728515625	-260.50927734375	1096.3193359375	1046.116333007812	-27.11533737182617	1320.745361328125	1122.347290039062	-298.3014221191406	1246.580322265625	1019.429565429688	-253.8567352294922	1519.941528320312	1021.140441894531	-58.99179840087891	1431.802612304688	1101.158569335938	-340.6913146972656	1340.33642578125	1103.72998046875	-222.1487579345703	1496.137084960938	925.9622192382812	-121.5035171508789	1489.817993164062	880.7745361328125	-123.6703033447266	1358.259033203125	799.4375	-102.2040634155273	1143.792846679688	781.6460571289062	-169.0888519287109	1124.962158203125	835.8364868164062	-9.010410308837891	907.5151977539062	828.2762451171875	-76.4949951171875	892.4495239257812	765.1011352539062	-85.60466766357422	1034.968505859375	766.02783203125	-8.611414909362793	719.8507080078125	840.3060913085938	-60.15793991088867	821.9061889648438	770.0245971679688	4.006569862365723	828.719970703125	805.86474609375	-261.1824035644531	1504.515380859375	1211.505737304688	-303.2288818359375	1439.484008789062	1265.692138671875	-343.4249877929688	1154.926025390625	1314.542846679688	-304.2096862792969	1144.846801757812	1224.658325195312	-195.62158203125	935.113037109375	1362.317016601562	-281.8920593261719	913.8078002929688	1372.937866210938	-324.8351135253906	1082.898803710938	1344.00048828125	-160.6399536132812	748.5049438476562	1344.740844726562	-170.0377044677734	841.5957641601562	1380.32958984375	-250.2764739990234	832.8778076171875	1381.6064453125	-247.6245269775391	1679.059448242188	1117.597778320312	-67.00389099121094	1758.827514648438	1025.45068359375	-94.57795715332031	1755.01708984375	1151.794555664062	-227.1859893798828	1688.060668945312	980.6317749023438	-105.5625915527344	1001.111877441406	906.2228393554688	-169.4902496337891	1024.818115234375	1275.143676757812	-77.59550476074219	1056.46630859375	1245.3271484375	-4.714162826538086	1044.208862304688	998.1688842773438	-97.87297058105469	502.4074096679688	969.9293212890625	-88.63738250732422	645.277099609375	938.9381103515625	-212.6757354736328	42.82271957397461	976.13330078125	-151.6866760253906	278.5973205566406	960.4039306640625	1.244014501571655	43.80645370483398	1024.326904296875	-52.7747917175293	45.63245391845703	1068.580200195312	-101.6468505859375	38.92102813720703	949.2381591796875	-271.4333801269531	45.71969223022461	1037.726806640625	-150.3781890869141	522.8745727539062	1248.356567382812	-116.8335647583008	791.523681640625	1295.429565429688	-271.2314147949219	38.97628784179688	1216.591552734375	-143.6977996826172	399.11181640625	1231.350952148438	-48.28052520751953	47.77687072753906	1239.910522460938	-87.8359375	49.08554077148438	1182.304931640625	-173.9309387207031	35.89813613891602	1279.616577148438	-300.5865173339844	40.57345199584961	1139.5009765625	
747	7.46	-278.4642028808594	1060.65625	1104.709228515625	-239.6502532958984	1059.14697265625	986.947265625	-260.2200012207031	1096.47265625	1046.39208984375	-26.85186958312988	1320.712280273438	1122.897216796875	-297.9403686523438	1246.767944335938	1019.847900390625	-253.3689422607422	1520.11328125	1021.67431640625	-58.60642623901367	1431.78662109375	1101.722045898438	-340.3230590820312	1340.4765625	1104.138427734375	-221.6131134033203	1496.35205078125	926.4920654296875	-120.9696960449219	1489.94580078125	881.3472900390625	-123.271858215332	1358.460693359375	799.927001953125	-102.1101455688477	1143.981323242188	781.8773193359375	-169.1148071289062	1125.261108398438	836.0104370117188	-9.484390258789062	907.49560546875	828.40478515625	-76.88885498046875	892.635498046875	765.1123046875	-85.70712280273438	1035.135498046875	766.1686401367188	-9.492265701293945	719.7911987304688	840.2233276367188	-60.67180633544922	822.0684204101562	769.9874877929688	3.477174043655396	828.708251953125	805.92919921875	-260.7700805664062	1504.6279296875	1212.010131835938	-302.8533630371094	1439.570190429688	1266.259765625	-342.6792297363281	1154.937133789062	1315.36962890625	-303.5713500976562	1144.884887695312	1225.427368164062	-193.7506408691406	935.9675903320312	1363.235473632812	-279.7709045410156	914.1312255859375	1373.902221679688	-323.7695617675781	1082.940307617188	1344.875732421875	-157.3989410400391	749.6217041015625	1346.004760742188	-167.4460754394531	842.706298828125	1381.440673828125	-247.5923309326172	833.4318237304688	1382.7314453125	-247.022705078125	1679.153686523438	1118.157592773438	-66.29559326171875	1758.91357421875	1026.2275390625	-93.97081756591797	1755.044067382812	1152.533813476562	-226.4483184814453	1688.21728515625	981.245361328125	-105.1492691040039	1001.30126953125	906.6143798828125	-169.3756103515625	1024.763305664062	1275.510986328125	-77.51927947998047	1056.384887695312	1245.776000976562	-4.387818336486816	1044.317138671875	998.6797485351562	-96.92652893066406	502.4982604980469	970.1389770507812	-87.68086242675781	645.4313354492188	939.2826538085938	-212.6237335205078	42.85847473144531	975.9989013671875	-151.0972595214844	278.6983337402344	960.41552734375	1.221834897994995	43.80522155761719	1024.34619140625	-52.81342697143555	45.66019821166992	1068.556030273438	-101.6402435302734	38.86149597167969	949.1868286132812	-271.4893798828125	45.98041152954102	1037.486694335938	-150.4404144287109	522.8206176757812	1248.578979492188	-116.788703918457	791.4293823242188	1295.695068359375	-271.3397521972656	38.78504943847656	1216.713134765625	-143.8031768798828	399.0417785644531	1231.597778320312	-48.41751861572266	47.82917022705078	1239.899536132812	-87.943603515625	49.15887451171875	1182.314697265625	-173.9955139160156	35.80253982543945	1279.677612304688	-300.7228393554688	40.47143173217773	1139.581420898438	
748	7.47	-278.2663879394531	1060.815307617188	1104.965209960938	-239.3238983154297	1059.296875	987.252197265625	-259.9578857421875	1096.639892578125	1046.698852539062	-26.61384010314941	1320.697509765625	1123.462890625	-297.6180419921875	1246.966552734375	1020.282592773438	-252.9139709472656	1520.289672851562	1022.221984863281	-58.24520874023438	1431.786010742188	1102.290649414062	-339.9811401367188	1340.637939453125	1104.575927734375	-221.1206207275391	1496.561645507812	927.0358276367188	-120.4859085083008	1490.075073242188	881.92626953125	-122.9259948730469	1358.643676757812	800.4547729492188	-102.0363006591797	1144.139038085938	782.2066040039062	-169.1339111328125	1125.540893554688	836.3152465820312	-9.881057739257812	907.5017700195312	828.7271728515625	-77.22641754150391	892.7914428710938	765.3399047851562	-85.79404449462891	1035.27099609375	766.4559936523438	-10.19267559051514	719.784423828125	840.4379272460938	-61.07265472412109	822.2099609375	770.1964721679688	3.017551422119141	828.7120361328125	806.22900390625	-260.3862609863281	1504.756225585938	1212.529418945312	-302.4995422363281	1439.69091796875	1266.844848632812	-341.9670715332031	1154.980590820312	1316.210693359375	-302.9709777832031	1144.933349609375	1226.218627929688	-191.9486236572266	936.841552734375	1364.181274414062	-277.7239990234375	914.484619140625	1374.886108398438	-322.7395935058594	1083.0263671875	1345.775390625	-154.2493743896484	750.7638549804688	1347.311279296875	-164.9349517822266	843.8356323242188	1382.572631835938	-244.9925231933594	834.014892578125	1383.878784179688	-246.4571228027344	1679.268798828125	1118.710571289062	-65.59172821044922	1758.998901367188	1027.028930664062	-93.40145874023438	1755.076782226562	1153.299072265625	-225.7202453613281	1688.398681640625	981.8644409179688	-104.752799987793	1001.510559082031	907.04052734375	-169.317138671875	1024.696655273438	1275.911010742188	-77.48145294189453	1056.313598632812	1246.258666992188	-4.09390926361084	1044.444458007812	999.2335205078125	-95.96134185791016	502.6014404296875	970.3814086914062	-86.72002410888672	645.60498046875	939.6577758789062	-212.5536499023438	42.93204879760742	975.8558349609375	-150.4805908203125	278.8184814453125	960.4351806640625	1.20906925201416	43.79528427124023	1024.373413085938	-52.84468460083008	45.68097686767578	1068.537841796875	-101.6278305053711	38.80689239501953	949.136474609375	-271.5435485839844	46.27946853637695	1037.208374023438	-150.4906463623047	522.7643432617188	1248.813232421875	-116.7806167602539	791.3295288085938	1295.98486328125	-271.4524230957031	38.58917999267578	1216.834716796875	-143.9020385742188	398.9657287597656	1231.851928710938	-48.55590057373047	47.87526321411133	1239.876953125	-88.05762481689453	49.23320770263672	1182.3232421875	-174.0530700683594	35.71246719360352	1279.738037109375	-300.871826171875	40.38918304443359	1139.657348632812	
749	7.48	-278.1029357910156	1060.97412109375	1105.244262695312	-239.0235748291016	1059.467041015625	987.5846557617188	-259.7174072265625	1096.817626953125	1047.037719726562	-26.39300727844238	1320.69775390625	1124.043090820312	-297.3387756347656	1247.176635742188	1020.726623535156	-252.4917755126953	1520.47119140625	1022.779174804688	-57.90439224243164	1431.798583984375	1102.863891601562	-339.6654357910156	1340.826904296875	1105.047485351562	-220.6669311523438	1496.762084960938	927.595703125	-120.0510101318359	1490.205078125	882.5106811523438	-122.6271667480469	1358.805908203125	801.0179443359375	-101.9846267700195	1144.268432617188	782.6351318359375	-169.1427307128906	1125.796875	836.7421875	-10.1899356842041	907.5344848632812	829.2411499023438	-77.50334167480469	892.9146728515625	765.7818603515625	-85.86818695068359	1035.376831054688	766.8885498046875	-10.71061992645264	719.830322265625	840.9471435546875	-61.36082458496094	822.3251342773438	770.6521606445312	2.630390644073486	828.729736328125	806.7591552734375	-260.0290832519531	1504.900024414062	1213.063842773438	-302.1606750488281	1439.843383789062	1267.4443359375	-341.2897338867188	1155.051391601562	1317.06494140625	-302.4077453613281	1144.991455078125	1227.038330078125	-190.2108917236328	937.7268676757812	1365.145385742188	-275.7608947753906	914.865234375	1375.889404296875	-321.7456359863281	1083.1513671875	1346.693115234375	-151.2083892822266	751.920166015625	1348.64794921875	-162.5147399902344	844.97216796875	1383.715454101562	-242.490478515625	834.6181030273438	1385.038940429688	-245.9223480224609	1679.403076171875	1119.261840820312	-64.89323425292969	1759.079467773438	1027.848754882812	-92.86625671386719	1755.114990234375	1154.087036132812	-225.0057678222656	1688.60205078125	982.49072265625	-104.3729629516602	1001.741577148438	907.49755859375	-169.3256378173828	1024.619506835938	1276.342895507812	-77.47999572753906	1056.254638671875	1246.772827148438	-3.824382781982422	1044.591186523438	999.8297119140625	-94.99966430664062	502.7227478027344	970.6566162109375	-85.78566741943359	645.8009033203125	940.0596923828125	-212.4644470214844	43.04916763305664	975.7017822265625	-149.8618316650391	278.9590148925781	960.4635009765625	1.204126238822937	43.77694702148438	1024.408935546875	-52.86865615844727	45.69493103027344	1068.525634765625	-101.6088562011719	38.75885391235352	949.0865478515625	-271.5929870605469	46.61105728149414	1036.894775390625	-150.5282897949219	522.7073364257812	1249.06005859375	-116.8225250244141	791.2232666015625	1296.300048828125	-271.5673217773438	38.39737701416016	1216.9521484375	-143.9925231933594	398.8849487304688	1232.113647460938	-48.69210433959961	47.91287231445312	1239.84228515625	-88.17311859130859	49.30585098266602	1182.329711914062	-174.1005249023438	35.63076400756836	1279.797729492188	-301.0329284667969	40.32908248901367	1139.727905273438	
